<?xml version="1.0" encoding="UTF-8"?>
<!DOCTYPE svg PUBLIC "-//W3C//DTD SVG 1.1//EN" "http://www.w3.org/Graphics/SVG/1.1/DTD/svg11.dtd">
<svg version="1.1" xmlns="http://www.w3.org/2000/svg" xmlns:xlink="http://www.w3.org/1999/xlink" x="0" y="0" width="348" height="532" viewBox="0, 0, 348, 532">
  <g id="Layer_1">
    <path d="M95.253,291.138 C96.05,290.351 97.357,289.762 98.738,289.378 C101.55,288.628 104.689,288.485 107.794,288.601 C110.911,288.713 114.048,289.079 117.171,289.563 C114.164,288.594 111.108,287.73 107.964,287.111 C104.821,286.498 101.591,286.091 98.181,286.43 C96.485,286.64 94.691,287.02 92.972,288.16 C92.12,288.704 91.304,289.521 90.749,290.548 C90.183,291.568 89.915,292.783 89.952,293.928 C89.992,294.719 90.144,295.465 90.371,296.169 C87.621,295.884 84.843,295.846 82.087,296.084 C75.453,296.631 68.973,298.748 63.32,302.084 C57.651,305.403 52.83,309.974 49.333,315.313 C52.013,313.553 54.582,311.805 57.269,310.3 C59.933,308.769 62.664,307.443 65.434,306.301 C70.971,304.015 76.739,302.559 82.6,302.06 C88.456,301.555 94.398,301.967 100.171,303.387 C105.954,304.805 111.56,307.157 116.667,310.98 C115.065,308.202 112.763,305.814 110.199,303.777 C107.604,301.77 104.691,300.158 101.626,298.917 C101.15,298.725 100.664,298.56 100.181,298.386 L100.193,298.373 C100.104,298.353 99.998,298.316 99.893,298.281 C99.804,298.251 99.712,298.218 99.614,298.179 C98.499,297.726 96.89,296.681 96.164,296.063 C95.279,295.348 94.652,294.396 94.435,293.541 C94.343,293.114 94.35,292.725 94.47,292.328 C94.587,291.934 94.831,291.514 95.253,291.138 M249.347,477.891 C248.125,479.513 246.764,480.813 245.218,481.54 C242.18,483.035 238.302,482.805 234.085,482.491 C229.889,482.195 225.26,481.703 220.485,482.824 C218.126,483.394 215.772,484.46 213.934,486.084 C212.093,487.702 210.805,489.764 210.155,491.932 C211.903,490.468 213.658,489.283 215.509,488.577 C217.348,487.854 219.229,487.55 221.173,487.492 C225.068,487.365 229.176,488.144 233.641,488.472 C235.876,488.622 238.223,488.701 240.681,488.341 C243.114,487.99 245.736,487.126 247.839,485.443 C249.962,483.774 251.286,481.439 251.986,479.173 C252.648,476.869 252.794,474.566 252.615,472.313 C251.53,474.317 250.555,476.247 249.347,477.891 M151.72,486.084 C149.882,484.46 147.528,483.394 145.169,482.824 C140.394,481.703 135.765,482.195 131.568,482.491 C127.353,482.805 123.475,483.035 120.437,481.54 C118.89,480.813 117.53,479.513 116.308,477.891 C115.1,476.247 114.125,474.317 113.041,472.313 C112.859,474.566 113.007,476.869 113.669,479.173 C114.37,481.439 115.691,483.774 117.815,485.443 C119.919,487.126 122.541,487.99 124.972,488.341 C127.431,488.701 129.778,488.622 132.013,488.472 C136.479,488.144 140.585,487.365 144.481,487.492 C146.425,487.55 148.306,487.854 150.146,488.577 C151.998,489.283 153.751,490.468 155.5,491.932 C154.849,489.764 153.562,487.702 151.72,486.084 M172.781,451.564 C166.009,451.548 159.237,452.898 153.037,455.397 C149.938,456.655 146.981,458.184 144.181,459.903 C142.796,460.79 141.421,461.663 140.087,462.589 C139.421,463.053 138.755,463.51 138.082,463.95 C137.414,464.416 136.733,464.82 136,465.201 C137.654,465.084 139.257,464.552 140.812,464.076 C142.375,463.591 143.89,463.037 145.421,462.558 C148.466,461.558 151.472,460.616 154.501,459.865 C160.546,458.35 166.645,457.548 172.77,457.563 C178.894,457.595 185.022,458.396 191.126,459.783 C197.232,461.19 203.284,463.153 209.519,465.201 C204.501,460.969 198.709,457.674 192.498,455.27 C186.27,452.921 179.555,451.584 172.781,451.564 M287.086,304.639 C281.326,301.302 274.809,299.232 268.156,298.543 C264.154,298.129 260.083,298.204 256.094,298.812 C256.943,297.391 257.619,295.832 257.905,294.066 C258.022,293.118 258.039,292.118 257.774,291.093 C257.494,290.067 256.889,289.095 256.098,288.409 C254.448,287.084 252.597,286.85 250.986,286.847 C249.346,286.867 247.798,287.138 246.291,287.488 C243.289,288.226 240.464,289.344 237.705,290.563 C240.625,289.816 243.583,289.189 246.524,288.969 C247.99,288.877 249.453,288.877 250.817,289.09 C252.175,289.291 253.418,289.834 254.012,290.565 C254.287,290.941 254.425,291.328 254.469,291.776 C254.493,292.235 254.396,292.755 254.238,293.284 C253.858,294.358 253.171,295.442 252.327,296.392 C251.065,297.798 248.616,300.159 246.569,301.435 C245.958,301.691 245.357,301.969 244.76,302.258 C244.725,302.266 244.686,302.28 244.652,302.286 L244.668,302.303 C242.847,303.194 241.098,304.226 239.491,305.449 C236.856,307.491 234.517,309.94 233,312.813 C238.029,308.741 243.733,306.477 249.618,305.256 C255.509,304.056 261.564,303.89 267.528,304.508 C273.496,305.14 279.38,306.589 284.999,308.869 C290.63,311.144 295.941,314.288 301,318.313 C297.845,312.645 292.829,307.976 287.086,304.639 M331.232,153.738 C326.99,137.816 318.848,116.084 303.316,93.751 C302.699,94.631 302.351,95.726 302.158,96.864 C301.907,98.348 301.893,99.918 301.947,101.491 C302.265,107.814 303.308,114.288 303.742,120.897 C304.168,127.502 304.074,134.313 302.665,141.083 C302.1,143.941 301.983,146.837 302.313,149.706 C302.638,152.578 303.435,155.406 304.505,158.168 C306.679,163.703 310.082,168.876 313.843,173.925 C315.73,176.459 317.748,178.939 319.762,181.548 C320.772,182.85 321.79,184.181 322.798,185.593 C323.804,187.015 324.811,188.493 325.744,190.297 C326.205,191.206 326.655,192.2 327.001,193.432 C327.326,194.656 327.617,196.182 327.242,198.042 L326.93,199.397 C326.851,199.733 326.764,200.066 326.714,200.407 L326.534,201.42 L326.407,202.458 C326.073,205.219 326.145,208.332 326.219,211.5 C326.368,217.87 326.707,224.455 326.794,230.981 L326.909,240.793 C326.929,242.428 326.912,244.063 326.9,245.697 L326.873,250.532 C326.892,253.561 327.01,256.571 327.305,259.513 C329.236,248.033 332.108,229.974 336.406,201.478 L336.723,199.378 C337.233,196.005 337.795,178.374 331.232,153.738 M317.866,196.094 C317.889,196.008 317.876,196.042 317.872,196.056 L317.861,196.099 L317.861,196.114 L317.866,196.094 z M330.391,307.675 C330.079,307.917 329.752,308.146 329.412,308.358 L328.342,309.004 C327.959,309.175 327.573,309.334 327.186,309.49 C326.42,309.839 325.623,309.98 324.835,310.155 C324.049,310.322 323.288,310.312 322.522,310.373 C321.789,310.339 321.048,310.312 320.348,310.221 C318.957,310.015 317.653,309.691 316.432,309.277 C313.989,308.45 311.814,307.361 309.735,306.209 C305.604,303.877 301.849,301.259 298.014,298.834 C296.096,297.628 294.164,296.464 292.139,295.501 C290.123,294.552 287.964,293.773 285.667,293.98 C287.89,293.347 290.335,293.731 292.565,294.326 C294.822,294.93 297.001,295.752 299.148,296.606 C303.428,298.326 307.609,300.215 311.785,301.648 C313.866,302.349 315.952,302.932 317.932,303.21 C319.897,303.485 321.79,303.445 323.048,302.87 C324.312,302.313 325.074,301.479 325.757,300.134 C326.169,299.305 327.774,291.395 329.005,285.035 C327.676,284.001 326.343,282.767 325.225,281.399 C322.65,278.258 321.072,274.693 319.976,271.235 C317.825,264.264 317.311,257.399 317.146,250.652 L317.008,240.886 L316.827,231.193 L316.331,211.677 C316.324,208.35 316.292,204.935 316.799,201.241 L317.001,199.863 L317.277,198.482 C317.361,198.019 317.483,197.567 317.6,197.114 L317.853,196.14 C317.849,196.08 317.839,196.001 317.811,195.888 C317.736,195.55 317.546,195.039 317.288,194.493 C316.765,193.387 315.993,192.133 315.156,190.88 C314.311,189.619 313.394,188.338 312.45,187.042 C310.555,184.455 308.608,181.78 306.714,179.023 C304.69,176.077 302.743,172.989 301.02,169.728 C299.626,167.819 297.98,165.998 296.18,164.293 C293.548,161.804 290.6,159.537 287.482,157.476 C284.361,155.416 281.066,153.555 277.649,151.912 C274.228,150.28 270.699,148.827 267,147.813 C270.822,148.171 274.621,149.002 278.354,150.04 C282.087,151.091 285.771,152.389 289.376,153.953 C291.684,154.957 293.957,156.085 296.184,157.34 C295.63,155.034 295.255,152.669 295.134,150.27 C294.951,146.657 295.35,142.99 296.336,139.532 C297.114,136.828 297.666,134.037 298.063,131.194 C296.702,127.086 294.164,120.129 293.668,118.781 C292.937,116.967 292.141,115.131 291.196,113.318 C289.346,109.682 287.183,106.105 284.865,102.612 C280.206,95.63 274.955,88.932 269.273,82.619 C263.586,76.308 257.499,70.31 250.85,64.977 C247.526,62.313 244.063,59.81 240.402,57.615 C236.742,55.43 232.876,53.528 228.734,52.335 C232.973,53.12 237.071,54.659 240.991,56.512 C244.915,58.376 248.677,60.574 252.318,62.953 C259.601,67.719 266.389,73.215 272.825,79.1 C279.26,84.993 285.311,91.325 290.9,98.159 C293.685,101.586 296.348,105.145 298.787,108.967 C298.851,109.068 298.907,109.158 298.967,109.255 C298.958,106.668 298.967,104.059 299.208,101.413 C299.365,99.741 299.585,98.048 300.094,96.367 C300.524,94.964 301.2,93.475 302.356,92.39 C297.493,85.524 291.934,78.612 285.56,71.803 C248.92,32.66 207.18,11.922 164.832,11.813 C126.054,17.08 79.955,40.383 50.008,69.875 C23.793,95.694 10.5,134.364 10.5,184.813 C10.5,211.629 16.658,247.361 22.149,266.997 C22.497,266.067 22.836,265.13 23.157,264.182 C23.843,262.134 24.471,260.058 25.083,257.97 C26.257,253.783 27.278,249.532 28.043,245.237 C28.821,240.943 29.342,236.604 29.431,232.251 C29.454,230.078 29.336,227.903 28.95,225.766 C28.589,223.627 27.922,221.519 26.667,219.646 C28.368,221.139 29.523,223.225 30.394,225.35 C31.234,227.504 31.774,229.76 32.178,232.028 C32.944,236.575 33.063,241.183 32.905,245.755 C32.722,250.329 32.226,254.882 31.468,259.401 C30.811,263.256 29.963,267.082 28.853,270.899 C29.042,273.26 29.24,275.691 29.254,275.76 C29.28,275.898 29.324,276.059 29.361,276.212 C29.432,276.519 29.522,276.834 29.614,277.151 C29.791,277.782 30.003,278.42 30.228,279.048 C30.671,280.314 31.216,281.538 31.81,282.731 C33.006,285.112 34.515,287.287 36.346,289.052 C38.171,290.823 40.328,292.182 42.783,292.905 C45.144,293.69 47.602,293.667 50.235,292.922 C52.863,292.194 55.553,290.844 58.33,289.523 C61.105,288.196 64.01,286.889 67.066,286.028 C70.112,285.147 73.294,284.74 76.412,284.852 C79.534,284.972 82.584,285.557 85.5,286.47 C82.486,285.961 79.43,285.808 76.452,286.101 C73.474,286.404 70.595,287.188 67.907,288.381 C65.207,289.56 62.698,291.125 60.167,292.792 C57.628,294.444 55.057,296.256 51.941,297.623 C50.388,298.298 48.684,298.838 46.882,299.093 C45.087,299.351 43.195,299.323 41.424,299.005 C37.895,298.483 34.469,296.961 31.594,294.855 C28.695,292.752 26.303,290.123 24.342,287.292 C23.737,286.411 23.174,285.507 22.635,284.59 C22.332,285.029 22.026,285.462 21.724,285.89 C20.373,287.784 18.975,289.574 18.133,291.011 C17.296,292.505 17.085,293.312 17.213,294.683 C17.342,296.037 17.85,297.812 18.626,299.632 C18.958,300.531 19.439,301.47 19.861,302.395 L21.325,305.469 C23.263,309.649 24.898,313.925 26.627,317.758 C27.471,319.681 28.363,321.441 29.305,322.792 C30.267,324.16 31.143,324.908 32.107,325.307 C32.607,325.515 33.187,325.658 33.893,325.718 L34.145,325.758 L34.609,325.787 C34.926,325.809 35.255,325.823 35.56,325.853 C36.183,325.905 36.796,325.965 37.397,326.04 C39.81,326.325 42.129,326.73 44.428,327.247 C49.012,328.282 53.506,329.593 57.873,331.341 C62.24,333.075 66.508,335.156 70.502,337.824 C72.504,339.143 74.422,340.626 76.227,342.267 C78.031,343.906 79.723,345.719 81.163,347.756 C81.88,348.775 82.56,349.823 83.15,350.932 C83.469,351.469 83.724,352.048 83.989,352.617 C84.117,352.898 84.263,353.194 84.373,353.463 L84.688,354.251 C85.525,356.355 86.337,358.464 87.104,360.588 C88.622,364.841 90.017,369.126 91.231,373.456 L92.877,379.473 C94.8,377.427 97.408,376.042 98.864,376.022 C99.097,374.345 99.356,372.699 99.638,371.076 L101.7,359.698 C102.347,355.924 102.974,352.151 103.329,348.36 C103.498,346.466 103.636,344.564 103.617,342.662 C103.662,341.701 103.533,340.769 103.48,339.811 C103.466,339.327 103.373,338.865 103.276,338.397 L103,336.98 L103.517,338.331 C103.695,338.783 103.875,339.242 103.97,339.716 C104.191,340.657 104.49,341.605 104.612,342.568 C104.968,344.49 105.164,346.431 105.329,348.376 C105.64,352.268 105.673,356.159 105.686,360.038 L105.615,371.6 C105.616,372.274 105.625,372.94 105.632,373.606 C106.457,373.3 107.49,373.522 108.821,374.646 C109.509,375.229 110.093,375.722 110.603,376.153 L110.875,375.475 C111.357,374.284 111.759,372.983 112.208,371.738 L113.407,367.87 L114.515,363.949 C115.935,358.69 117.128,353.344 118.125,347.962 C119.1,342.579 119.931,337.148 120.287,331.682 C120.453,328.951 120.559,326.209 120.445,323.47 L120.421,322.439 L120.322,321.418 L120.115,319.369 C120.077,318.676 119.906,318.014 119.765,317.34 L119.333,315.313 L120.007,317.276 C120.23,317.934 120.484,318.59 120.606,319.274 L121.064,321.312 L121.291,322.335 L121.44,323.368 C121.89,326.125 122.12,328.908 122.287,331.698 C122.595,337.281 122.421,342.868 122.095,348.447 C121.746,354.026 121.193,359.594 120.392,365.155 L119.742,369.326 L119.617,370.009 C120.181,369.754 120.74,369.735 121.27,370.063 C124.5,372.063 127.625,372.353 128.875,375.013 C130.125,377.673 138.25,363.813 140.25,367.313 C141.029,368.676 142.406,370.962 143.878,373.034 C144.138,372.167 144.388,371.29 144.625,370.398 C145.44,367.276 146.144,364.077 146.786,360.862 C147.419,357.643 147.977,354.401 148.455,351.144 C148.903,347.884 149.375,344.619 149.333,341.313 C150.039,344.56 150.238,347.91 150.453,351.229 C150.64,354.555 150.745,357.89 150.768,361.233 C150.784,364.577 150.735,367.928 150.552,371.321 C150.47,372.779 150.347,374.253 150.183,375.751 C152.601,372.3 159.976,368.229 161.886,369.813 C163.519,371.165 167.768,375.517 171.536,376.892 L176.333,345.122 L178.136,374.464 C182.094,370.132 186.786,362.452 188.924,363.967 C190.851,365.332 194.875,370.961 197.768,373.427 C197.41,372.762 197.085,372.091 196.798,371.419 C195.523,368.488 194.798,365.51 194.31,362.565 C193.835,359.616 193.624,356.684 193.585,353.775 C193.554,350.867 193.669,347.975 194,345.122 C194.336,347.969 194.887,350.774 195.57,353.52 C196.257,356.263 197.108,358.947 198.163,361.489 C199.222,364.023 200.483,366.437 202.022,368.467 C202.55,369.186 203.121,369.843 203.716,370.438 C205.661,368.751 207.97,367.783 209.5,369.313 C212,371.813 217.66,377.896 219.5,376.313 C220.644,375.328 222.734,372.511 224.452,370.76 C223.158,366.558 222.234,362.324 221.512,358.074 C220.57,352.452 219.987,346.804 219.794,341.149 C219.701,338.323 219.702,335.493 219.858,332.674 C220.023,329.86 220.322,327.036 221,324.313 C220.651,327.097 220.69,329.893 220.858,332.671 C221.035,335.45 221.365,338.217 221.787,340.964 C222.632,346.458 223.859,351.884 225.411,357.178 C226.964,362.461 228.871,367.648 231.309,372.384 C232.255,374.203 233.302,375.952 234.454,377.502 C235.751,375.997 237.899,376.234 239.742,377.14 C239.621,376.852 239.505,376.565 239.388,376.278 C238.37,373.667 237.802,371.093 237.384,368.549 C236.573,363.463 236.445,358.479 236.505,353.533 C236.585,348.588 236.93,343.688 237.421,338.817 C237.947,333.95 238.539,329.096 239.5,324.313 C239.202,329.17 239.278,334.041 239.419,338.885 C239.596,343.73 239.92,348.561 240.501,353.326 C241.091,358.079 241.888,362.815 243.234,367.216 C243.907,369.405 244.716,371.522 245.735,373.326 C246.079,373.947 246.458,374.517 246.852,375.027 C247.649,374.2 248.523,373.913 249.49,375.013 C250.251,375.88 251.335,378.345 252.519,381.598 C252.689,369.418 254.785,358.052 260,353.813 C269.244,346.299 274.13,345.826 276.665,348.093 C281.847,343.94 287.495,341.327 292.649,339.696 C293.971,339.069 295.294,338.449 296.625,337.838 C302.58,335.118 308.62,332.632 314.876,330.427 C316.448,329.879 318.042,329.384 319.702,328.943 C320.534,328.724 321.379,328.521 322.289,328.358 C322.739,328.275 323.217,328.209 323.724,328.158 C323.994,328.14 324.244,328.116 324.55,328.117 C324.608,328.117 324.674,328.122 324.732,328.122 C324.776,328.067 324.835,327.992 324.902,327.904 C325.168,327.542 325.49,326.983 325.773,326.374 C326.349,325.137 326.849,323.707 327.286,322.245 C328.638,317.582 329.611,312.643 330.391,307.675 M325.287,328.132 C325.191,328.12 325.104,328.122 325.025,328.127 C325.156,328.133 325.478,328.163 325.287,328.132 M309.659,336.773 C309.637,336.78 309.616,336.785 309.594,336.792 L309.642,336.814 C309.648,336.799 309.653,336.787 309.659,336.773 M299.296,362.88 C296.02,362.708 291.643,363.036 286.958,364.842 C286.598,368.07 286.312,371.305 286.087,374.544 C285.323,385.804 285.25,397.104 285.54,408.376 C285.852,419.648 286.56,430.91 287.804,442.074 C288.431,447.651 289.19,453.211 290.223,458.659 C290.719,461.392 291.35,464.065 292.046,466.669 C292.238,467.282 292.421,467.902 292.617,468.508 C300.149,461.451 300.893,450.548 295.663,430.579 C292.015,416.651 295.417,385.906 299.296,362.88 M287.301,473.782 C287.163,473.417 287.036,473.058 286.919,472.706 C286.387,471.195 286.056,469.744 285.687,468.283 C285.065,465.384 284.548,462.51 284.179,459.649 C283.396,453.923 282.918,448.223 282.574,442.524 C281.895,431.128 281.769,419.748 282.04,408.381 C282.333,397.018 282.993,385.663 284.346,374.38 C284.708,371.382 285.122,368.388 285.599,365.406 C282.855,366.622 280.037,368.373 277.298,370.833 C274.092,386.878 267.04,417.176 261.657,420.294 C261.976,422.143 262.072,423.986 261.843,425.516 C261.938,428.532 261.852,431.041 261.5,431.98 C260.5,434.646 256.167,437.98 255.333,437.146 C255.393,439.765 254.528,441.272 253.155,442.001 C253.092,442.158 253.029,442.313 252.966,442.469 C251.865,445.242 250.789,448.027 249.75,450.825 C248.716,453.623 247.714,456.432 246.811,459.27 C246.363,460.689 245.936,462.115 245.574,463.554 C245.395,464.275 245.224,464.999 245.108,465.728 C244.996,466.458 244.872,467.199 245,467.94 C244.708,467.237 244.661,466.457 244.608,465.702 C244.559,464.942 244.567,464.182 244.583,463.423 C244.619,461.905 244.723,460.391 244.849,458.881 C245.11,455.864 245.471,452.86 245.868,449.862 C246.225,447.191 246.618,444.525 247.03,441.863 C245.679,441.41 244.298,440.77 243,440.014 C237.585,442.612 238.273,451.634 231.268,450.709 L223.806,471.396 L224.683,449.857 C221.182,450.698 221.083,454.636 214.667,452.98 C206.167,450.784 203.908,440.907 203.574,441.659 C203.241,442.413 198.5,453.646 190.333,446.813 C183.102,440.762 182.585,452.303 175.25,445.316 C169.751,452.637 163.017,448.658 160,444.325 C156,455.497 148.852,450.764 143,447.295 C135.972,452.459 133.117,455.063 126.25,447.295 C124.341,445.136 122.095,446.958 119.232,448.256 L121.585,472.313 L112.886,448.912 C111.897,448.592 110.855,448.045 109.75,447.174 C107.5,449.174 104.664,449.884 101.934,449.7 C102.371,451.641 102.816,453.581 103.237,455.528 C103.933,458.799 104.62,462.07 105.216,465.364 C105.785,468.655 106.427,471.971 106.5,475.313 C105.765,472.07 104.498,469.004 103.294,465.918 C102.067,462.842 100.751,459.794 99.429,456.754 C98.009,453.515 96.556,450.283 95.085,447.064 C94.13,446.275 93.355,445.352 92.87,444.325 C90.5,439.313 82.5,437.337 81.75,434.575 C81.422,433.368 80.518,430.648 79.874,427.32 C79.261,425.713 78.829,423.426 78.51,420.264 C78.508,420.241 78.508,420.218 78.506,420.195 C76.966,416.025 75.63,411.363 75,410.313 C74.064,408.752 70.453,382.909 67.871,363.703 C66.706,362.902 65.512,362.116 64.305,361.351 C64.535,362.794 64.753,364.24 64.954,365.687 C66.37,376.035 67.165,386.458 67.627,396.895 C68.071,407.337 68.167,417.798 67.797,428.298 C67.608,433.55 67.308,438.809 66.771,444.112 C66.497,446.766 66.183,449.423 65.715,452.131 C65.616,452.802 65.482,453.487 65.339,454.173 C65.19,454.865 65.085,455.534 64.898,456.243 L64.351,458.364 L63.86,459.829 C62.908,464.295 61.961,469.765 61.812,472.073 C67.108,479.113 87.867,504.905 114.88,515.316 C120.852,517.617 125.296,518.938 129.009,519.614 C129.901,518.413 130.789,517.718 131.606,517.125 C133.425,515.861 135.121,515.088 136.812,514.377 C140.181,512.994 143.493,512.015 146.815,511.117 C153.453,509.361 160.089,508.027 166.755,506.921 C160.576,509.619 154.489,512.535 148.683,515.755 C146.509,516.971 144.362,518.239 142.367,519.584 C143.235,519.454 144.128,519.313 145.067,519.165 C153.582,517.817 165.22,515.972 189.407,518.296 C195.255,517.927 201.914,518.468 208.95,519.041 C213.176,519.384 217.485,519.734 221.812,519.926 C220.121,518.382 218.262,516.904 216.211,515.635 C214.04,514.273 211.72,513.047 209.298,511.986 C206.873,510.932 204.358,510.003 201.75,509.313 C204.451,509.174 207.186,509.291 209.926,509.566 C212.668,509.85 215.417,510.333 218.167,511.033 C220.918,511.721 223.635,512.735 226.325,513.995 C228.291,514.927 232.928,517.596 236.241,519.753 C256.642,518.027 275.894,508.593 287.246,473.763 L287.301,473.782 z M56.279,451.175 C56.368,450.855 56.463,450.541 56.54,450.208 C57.15,447.838 57.648,445.367 58.107,442.884 C59.02,437.908 59.724,432.831 60.318,427.734 C61.502,417.532 62.238,407.228 62.627,396.911 C62.999,386.594 63.042,376.247 62.466,365.93 C62.35,363.932 62.2,361.937 62.028,359.943 C56.589,356.667 51.141,353.981 47.283,352.726 C50.563,374.452 53.842,404.303 53.903,415.285 C53.954,424.442 52.477,432.718 51.398,438.76 C50.902,441.535 50.302,444.897 50.277,446.471 C51.749,447.783 54.147,449.637 56.279,451.175 M97.81,435.801 C101.119,438.669 103.957,439.9 105.042,439.627 C105.158,439.599 105.333,439.556 105.515,439.086 C106.402,436.811 106.503,430.355 106.572,426.083 C106.617,423.203 106.65,421.57 106.802,420.62 C106.575,420.115 105.441,418.971 103.981,418.336 C103.022,417.919 102.505,417.987 102.429,418.029 L100.726,416.989 L102.427,418.038 C99.749,422.38 95.796,434.056 97.81,435.801 M95.933,416.381 C95.714,415.811 95.425,415.239 95.177,414.879 C95.151,414.912 95.124,414.949 95.097,414.988 C92.169,419.101 89.024,426.281 89.815,427.988 L89.944,428.267 C90.316,429.07 91.024,430.601 91.653,431.653 C92.98,427.28 95.306,418.698 95.933,416.381 M82.49,419.862 C82.875,423.674 83.377,425.382 83.696,426.126 C83.741,426.076 83.788,426.023 83.839,425.963 C86.09,423.311 89.546,413.569 90.847,409.57 C87.253,412.032 82.171,416.701 82.49,419.862 M127.5,408.313 C127.5,403.814 124,380.557 123.041,377.4 C123.025,377.381 123.007,377.362 122.992,377.342 C122.612,376.894 121.822,375.967 121.148,376.07 C120.812,376.124 119.022,376.697 116.554,382.73 C113.12,394.222 116.298,410.656 118.218,412.73 C118.685,413.236 120.652,413.419 123.132,412.448 C125.664,411.458 127.5,409.718 127.5,408.313 M112.234,437.572 L113.194,438.117 C115.951,439.685 119.38,441.635 120.585,441.166 C120.96,441.018 121.22,440.348 121.341,439.962 C122.822,435.267 121.949,421.897 121.376,420.261 C120.849,419.338 117.643,417.676 116.294,417.586 L115.708,418.926 C113.003,425.106 108.478,435.449 112.234,437.572 M145.037,386.954 C143.458,382.295 140.371,377.054 138.601,377.013 L138.589,377.013 C137.972,377.013 136.828,378.113 135.613,381.222 C132.123,390.15 132.376,404.206 133.419,407.749 C134.013,409.773 135.472,411.53 137.317,412.448 C139.437,413.502 142.046,413.556 145.085,412.611 C145.817,405.145 145.714,388.953 145.037,386.954 M169.142,383.306 C168.748,382.393 165.007,378.405 160.886,378.197 C158.046,378.066 155.552,379.849 153.498,383.537 C152.136,386.023 150.526,406.999 151.304,414.598 C167.882,417.49 171.951,415.701 172.406,413.656 C173.685,407.884 170.095,385.687 169.142,383.306 M157.878,420.397 C159.89,428.02 162.702,438.266 163.513,440.4 C164.23,440.657 166.173,440.838 167.804,440.282 C168.513,440.041 168.998,439.699 169.132,439.345 C169.773,437.682 169.626,429.239 169.111,421.482 C164.416,420.612 159.814,420.174 157.878,420.397 M151.954,422.411 C147.575,420.32 143.076,418.86 141.298,418.867 C142.955,430.113 145.916,440.501 147.763,441.408 C149.759,442.319 151.341,442.564 152.216,442.094 C153.028,441.658 153.376,440.444 153.524,439.501 C154.052,436.157 152.7,426.821 151.954,422.411 M136.269,419.561 L136.268,419.561 C131.946,416.918 129.917,416.472 129.039,416.472 C128.724,416.472 128.556,416.53 128.486,416.564 C128.317,416.645 128.248,417.139 128.234,417.237 L128.228,417.286 C126.726,427.266 126.179,439.178 127.761,441.003 C129.321,442.803 134.166,443.831 137.358,443.047 C138.448,442.779 139.193,442.322 139.302,441.855 C140.125,438.363 137.337,422.5 136.269,419.561 M177.517,440.921 C180.022,441.718 180.995,441.753 181.873,439.372 C183.084,436.083 184.296,426.226 184.839,421.058 C181.181,420.158 177.551,419.751 176.366,420.13 C176.212,423.401 176.434,437.881 177.517,440.921 M199.749,412.353 C199.714,403.104 199.065,385.896 197.849,383.691 C196.227,381.465 191.252,376.609 187.166,377.026 C184.977,377.247 183.093,379.052 181.569,382.393 C179.257,387.46 177.626,407.895 180.287,413.191 C180.634,413.882 181.721,414.428 183.347,414.728 C189.041,415.776 197.67,413.542 199.749,412.353 M217.321,386.067 C212.067,377.948 209.773,376.586 208.827,376.586 C208.775,376.586 208.727,376.591 208.683,376.598 C208.333,376.657 207.574,377.431 206.94,379.965 C205.895,384.143 203.878,402.946 208.41,408.75 C209.829,410.568 211.819,411.561 214.327,411.701 C217.366,411.872 220.04,410.751 220.911,410.167 C221.061,407.075 220.388,390.807 217.321,386.067 M208.958,418.299 C209.133,420.017 210.735,435.468 212.111,441.192 C212.744,443.821 214.207,445.268 215.263,445.295 C215.271,445.295 215.28,445.296 215.289,445.296 C216.061,445.296 216.792,444.38 217.249,442.839 C218.935,437.136 218.945,421.794 218.591,418.743 C217.626,418.137 214.194,417.311 211.2,417.629 C209.73,417.782 209.105,418.147 208.958,418.299 M191.023,440.064 C192.776,440.465 196.612,441.017 197.655,438.536 C199.441,434.297 202.621,421.526 203.093,417.152 C201.113,417.567 197.477,418.82 195.322,419.562 C193.585,420.159 192.268,420.611 191.27,420.906 C190.96,428.846 190.811,437.242 191.023,440.064 M227.236,442.204 C229.747,444.707 230.635,444.468 230.668,444.457 C231,444.357 231.781,443.412 232.364,440.554 C233.829,433.381 235.293,423.617 234.604,419.706 C234.378,418.431 231.367,416.751 228.741,416.751 C228.657,416.751 228.573,416.752 228.489,416.755 C226.781,416.828 226.718,417.522 226.692,417.819 L226.686,417.874 C225.474,428.151 225.406,440.379 227.236,442.204 M241.519,392.7 C240.897,398.478 240.86,408.02 243.328,410.988 C243.835,411.598 244.288,411.7 244.625,411.722 C245.802,411.796 246.693,411.84 247.325,411.828 C247.15,410.929 246.921,409.631 247.001,407.968 C247.144,404.98 244.746,399.899 243.159,396.535 C242.268,394.647 241.75,393.53 241.519,392.7 M247.446,384.523 C247.449,386.099 247.597,388.077 247.876,389.728 C249.241,397.752 252.111,405.197 253.695,408.495 C253.823,407.975 253.958,407.298 254.085,406.42 C254.675,402.369 250.147,389.883 247.446,384.523 M241.165,420.434 C241.774,429.856 244.671,437.025 248.211,437.867 C249.083,438.074 249.763,438.06 250.037,437.827 C250.829,437.149 250.593,434.193 250.515,433.222 C250.469,432.634 250.437,431.706 250.399,430.578 C250.318,428.124 250.08,420.945 249.116,419.028 C248.593,419.063 248.007,419.082 247.399,419.102 C245.657,419.158 242.032,419.277 241.226,420.166 C241.188,420.208 241.152,420.247 241.165,420.434 M256.501,416.751 C255.899,417.367 255.243,417.833 254.668,418.169 C254.7,418.468 254.736,418.824 254.779,419.25 C255.326,424.721 255.839,428.631 256.316,430.94 C256.653,430.061 256.958,428.85 257.408,426.997 L257.809,425.359 C258.423,422.884 257.429,419.017 256.501,416.751 M226.792,409.934 C228.425,411.318 233.231,413.552 235.22,412.176 C236.892,409.596 234.191,391.193 231.852,386.155 C230.133,382.452 228.399,380.563 227.68,380.207 C227.577,380.342 227.405,380.62 227.211,381.151 L226.89,382.019 C226.222,383.806 225.104,386.797 224.911,388.834 C224.609,392.017 225.584,407.583 226.792,409.934 M109.5,386.113 C109.476,383.808 108.398,382.535 107.792,382.469 C107.352,382.423 106.161,383.367 105.447,386.618 C102.664,399.304 103.278,408.675 107.064,412.001 C109.113,411.727 110.284,411.447 110.925,411.248 C110.487,406.694 109.082,391.394 109.5,386.113 M98.681,388.788 C98.589,388.322 98.384,388.014 98.128,387.991 C97.81,387.974 97.184,388.356 96.895,389.536 C95.124,396.799 94.528,407.981 97.962,410.304 C98.561,410.577 99.125,410.815 99.642,411.02 C98.257,405.551 96.248,395.264 98.681,388.788 M346.61,200.873 L346.293,202.97 C340.421,241.898 336.368,266.971 334.2,277.771 C334.441,277.986 334.695,278.199 334.962,278.413 C335.503,278.851 336.11,279.287 336.859,279.864 C337.587,280.458 338.568,281.142 339.583,282.616 C340.074,283.337 340.495,284.274 340.689,285.199 C340.882,286.136 340.876,286.674 340.901,287.216 C340.917,288.252 340.871,289.14 340.812,290.024 C340.693,291.777 340.493,293.451 340.271,295.117 C339.823,298.444 339.268,301.713 338.637,304.972 C338.002,308.23 337.26,311.465 336.427,314.695 C335.585,317.925 334.646,321.139 333.41,324.355 C332.788,325.966 332.103,327.575 331.176,329.223 C330.701,330.048 330.175,330.889 329.391,331.769 C328.97,332.212 328.522,332.666 327.812,333.103 C327.125,333.529 326.067,333.935 324.904,333.833 C323.843,333.636 322.35,333.86 320.834,334.105 C319.322,334.365 317.778,334.712 316.229,335.066 C311.281,343.689 316.593,349.668 318.362,355.646 C320.023,361.265 314.217,373.444 307.921,372.7 C304.845,393.12 302.496,417.199 305.335,428.046 C310.361,447.229 312.662,466.559 296.19,478.491 C287.837,503.055 274.733,518.456 256.134,525.491 C239.986,531.599 223.066,530.22 208.139,529.008 C201.321,528.452 194.879,527.929 189.689,528.3 L189.267,528.331 L188.847,528.29 C165.653,526.028 154.659,527.769 146.632,529.042 C142.599,529.681 139.105,530.235 135.222,530.235 C129.272,530.235 122.408,528.934 111.284,524.646 C80.408,512.747 57.41,482.979 53.113,477.133 L53,476.98 C51.882,475.49 50.826,474.066 53.351,461.285 C48.307,458.131 42.54,452.923 42.464,452.848 C39.291,449.674 40.143,444.905 41.554,437.003 C42.621,431.024 43.949,423.584 43.903,415.341 C43.855,406.542 41.848,387.372 39.544,369.7 C30.275,364.253 25.792,361.547 32,353.646 C36.063,348.475 34.406,341.365 31.495,335.311 C31.293,335.281 31.089,335.242 30.881,335.19 L29.682,334.891 C29.282,334.792 28.886,334.681 28.496,334.501 C27.725,334.156 26.907,333.865 26.225,333.377 C25.521,332.922 24.792,332.467 24.226,331.917 C23.617,331.387 23.021,330.842 22.563,330.27 C22.061,329.702 21.576,329.127 21.203,328.556 C19.581,326.256 18.472,324.001 17.507,321.854 C15.62,317.533 14.087,313.463 12.336,309.521 L11.002,306.519 C10.524,305.404 10.019,304.339 9.599,303.136 C8.722,300.828 7.9,298.276 7.763,295.168 C7.702,294.42 7.803,293.566 7.846,292.774 C7.964,291.964 8.125,291.124 8.356,290.337 C8.628,289.573 8.882,288.754 9.25,288.099 L9.777,287.074 L10.343,286.179 C11.876,283.838 13.403,282.239 14.727,280.568 C15.041,280.177 15.35,279.792 15.653,279.408 C9.284,262.728 0.5,217.926 0.5,184.813 C0.5,131.586 14.796,90.518 42.992,62.75 C74.939,31.287 122.375,7.386 163.837,1.857 L164.5,1.813 C209.8,1.813 254.187,23.652 292.861,64.969 C345.447,121.147 348.638,187.468 346.61,200.873 M204.578,208.867 L204.46,208.792 C204.487,208.864 204.511,208.937 204.537,209.009 C204.55,208.961 204.564,208.915 204.578,208.867 M253,272.313 C225.5,259.313 206,246.813 203.5,229.813 C202.548,223.344 202.822,217.892 203.525,213.616 C202.462,211.959 201.397,210.321 200.28,208.727 C197.87,205.263 195.348,201.93 192.628,198.857 C191.089,197.105 189.473,195.426 187.791,193.868 C187.685,193.905 187.583,193.931 187.471,193.983 C187.093,194.173 186.699,194.49 186.304,194.87 C185.537,195.685 184.847,196.825 184.32,198.096 C183.272,200.668 182.792,203.683 182.754,206.711 C182.735,209.749 183.125,212.852 183.954,215.87 C184.769,218.894 186.02,221.834 187.667,224.591 C185.55,222.18 183.731,219.45 182.315,216.484 C180.886,213.523 179.858,210.333 179.268,207.007 C178.707,203.677 178.562,200.2 179.283,196.618 C179.666,194.831 180.277,193.003 181.383,191.223 C181.737,190.692 182.136,190.168 182.591,189.665 C179.858,187.782 176.977,186.311 173.96,185.455 C173.528,185.305 173.087,185.207 172.646,185.119 C172.201,185.034 171.778,184.898 171.312,184.854 L169.942,184.661 C169.494,184.633 169.044,184.61 168.597,184.567 C166.819,184.468 165.126,184.645 163.539,185.074 C161.233,185.668 159.134,187.033 157.173,188.889 C158.268,189.71 158.998,190.715 159.451,191.648 C159.703,192.149 159.858,192.628 160.037,193.114 C160.158,193.58 160.3,194.055 160.386,194.509 C161.05,198.135 160.742,201.356 160.386,204.564 C159.986,207.753 159.378,210.864 158.648,213.933 C157.906,216.997 157.087,220.04 156,222.979 C156.522,219.898 156.757,216.786 156.916,213.686 C157.062,210.588 157.078,207.49 156.888,204.451 C156.683,201.45 156.306,198.355 155.335,195.946 C155.218,195.648 155.073,195.398 154.952,195.124 C154.8,194.906 154.669,194.656 154.523,194.488 C154.237,194.12 153.957,194.012 153.857,194.002 C153.74,194.075 153.734,194.092 153.487,194.191 C153.378,194.223 153.181,194.35 153.036,194.391 C152.832,194.52 152.628,194.642 152.425,194.75 L152.343,194.576 C150.743,196.748 149.156,199.063 147.398,201.313 C147.132,201.648 146.862,201.981 146.589,202.314 C151.214,203.536 154.863,222.944 142.667,242.646 C129.667,263.646 75.667,279.313 57.333,276.313 C39,273.313 43.333,244.313 45,236.313 C46.667,228.313 43.667,221.979 38.967,213.979 C44.935,179.646 89.334,169.313 111.333,173.313 C114.524,173.893 117.216,174.874 119.524,176.125 C119.315,175.742 119.12,175.351 118.908,174.971 C116.036,169.801 112.851,164.787 109.066,160.241 C107.132,158.024 105.117,155.825 102.775,154.021 C100.462,152.2 97.899,150.573 94.952,149.813 C97.99,150.075 100.908,151.288 103.604,152.771 C106.343,154.238 108.794,156.15 111.189,158.121 C115.886,162.167 120.044,166.799 123.897,171.638 C127.763,176.478 131.224,181.601 134.552,186.811 C137.503,191.4 140.177,196.133 142.813,200.902 C143.354,200.384 143.796,199.844 144.064,199.266 C145.837,195.441 147.464,191.422 149.94,187.492 C151.187,185.54 152.66,183.6 154.539,181.897 C156.382,180.168 158.7,178.758 161.192,177.877 C163.687,176.979 166.314,176.67 168.817,176.681 L170.683,176.769 L172.501,176.993 C173.105,177.05 173.716,177.211 174.325,177.324 C174.936,177.441 175.542,177.572 176.13,177.759 C180.908,179.11 185.151,181.653 188.677,184.706 C190.444,186.241 192.096,187.866 193.56,189.623 C195.049,191.356 196.413,193.171 197.64,195.053 C198.736,196.719 199.73,198.433 200.654,200.177 C200.82,199.848 201.004,199.479 201.224,199.036 C202.608,196.259 204.039,193.511 205.525,190.791 C208.498,185.354 211.67,180.022 215.184,174.895 C218.712,169.79 222.535,164.815 227.16,160.557 C229.469,158.446 232.016,156.513 234.895,155.191 C237.738,153.85 241.089,153.353 244,154.313 C240.958,153.861 238.011,154.861 235.621,156.504 C233.201,158.144 231.165,160.294 229.352,162.604 C225.733,167.247 222.915,172.513 220.388,177.88 C219.17,180.494 218.037,183.149 216.962,185.831 C221.884,181.353 229.959,177.375 244.667,174.646 C277,168.646 311.333,203.313 312.667,210.313 C314,217.313 302.397,266.015 304.397,270.646 C306.397,275.278 280.5,285.313 253,272.313 M181.869,232.884 C175.869,223.217 175.167,231.979 175.167,235.313 C175.167,238.646 171.059,239.427 167.726,234.094 C164.393,228.761 159.602,223.618 159.667,228.644 C159.804,239.44 145.667,287.646 143.667,295.313 C141.667,302.98 137.333,331.98 156,328.646 C174.667,325.313 159.116,318.313 170.783,315.313 C182.449,312.313 172.333,326.911 190.333,328.911 C208.333,330.911 207.333,312.646 206.667,306.98 C206,301.313 187.869,242.551 181.869,232.884 M44.532,169.99 C41.963,174.974 39.163,179.764 35.969,184.412 C35.568,184.996 35.174,185.577 34.732,186.159 C34.318,186.731 33.853,187.333 33.371,187.938 C33.208,188.147 33.262,188.075 33.211,188.119 C33.179,188.125 33.144,188.185 33.106,188.237 C33.024,188.318 32.944,188.502 32.858,188.672 C32.69,189.034 32.539,189.541 32.41,190.061 C31.939,192.247 31.842,194.92 31.844,197.557 C31.837,200.219 31.948,202.938 32.019,205.68 C32.1,208.42 32.167,211.203 32,213.979 C30.164,208.756 28.275,203.63 26.988,198.129 C26.377,195.362 25.826,192.565 25.908,189.323 C25.955,188.493 26.004,187.648 26.236,186.705 C26.36,186.229 26.479,185.757 26.708,185.232 C26.815,184.975 26.917,184.722 27.078,184.447 L27.467,183.767 C28.045,182.757 28.644,181.55 29.243,180.392 C31.606,175.667 33.874,170.798 35.98,165.941 L37.535,162.296 C38.013,161.076 38.541,159.863 38.979,158.641 C39.947,156.213 40.774,153.786 41.471,151.399 L41.963,149.632 C42.104,149.055 42.209,148.494 42.338,147.925 C42.582,146.757 42.775,145.398 42.964,144.128 C43.38,141.548 43.667,138.942 43.932,136.342 C44.132,134.337 44.274,132.331 44.382,130.328 L43.906,130.294 C44.08,128.746 44.295,127.208 44.538,125.678 C44.557,124.04 44.551,122.406 44.488,120.781 C44.266,115.65 43.595,110.552 41.781,105.892 C40.875,103.566 39.64,101.372 37.971,99.438 C36.301,97.514 34.169,95.864 31.667,94.646 C34.438,94.809 37.273,95.703 39.761,97.301 C42.268,98.875 44.393,101.085 46.093,103.533 C47.157,105.085 48.045,106.721 48.817,108.402 C50.085,104.656 51.544,100.981 53.206,97.401 C58.041,87.11 64.599,77.62 72.727,69.775 C80.84,61.921 90.468,55.771 100.8,51.679 C105.97,49.637 111.292,48.073 116.677,46.892 C122.074,45.743 127.539,45.081 133,44.646 C127.583,45.495 122.214,46.567 116.984,48.104 C111.765,49.672 106.675,51.603 101.813,53.965 C92.091,58.7 83.389,65.284 76.334,73.239 C69.262,81.19 63.856,90.478 60.109,100.332 C56.405,110.195 54.245,120.665 53.88,131.01 L53.409,130.976 C53.466,132.975 53.46,134.971 53.398,136.959 C53.304,139.794 53.066,142.615 52.754,145.434 C52.577,146.863 52.399,148.204 52.12,149.709 C51.966,150.472 51.824,151.252 51.652,152 L51.075,154.177 C51.064,154.212 51.051,154.244 51.041,154.279 C54.075,152.919 57.141,151.757 60.224,150.696 C63.944,149.42 67.702,148.327 71.492,147.39 C73.385,146.919 75.289,146.492 77.204,146.13 C79.119,145.795 81.05,145.406 83,145.461 C81.086,145.739 79.278,146.443 77.472,147.093 C75.671,147.769 73.894,148.507 72.136,149.284 C68.62,150.832 65.171,152.522 61.829,154.36 C58.493,156.199 55.226,158.146 52.211,160.305 L50.024,161.969 C49.294,162.518 48.672,163.138 47.996,163.71 C47.671,163.974 47.395,164.26 47.133,164.548 C46.305,166.389 45.446,168.206 44.532,169.99" fill="#0A0B09"/>
  </g>
</svg>
